HIERARCHY
ROOT root
{
	OFFSET 0.000000 0.000000 0.000000
	CHANNELS 6 Xposition Yposition Zposition Zrotation Yrotation Xrotation
	JOINT lhip
	{
		OFFSET 0.058581 -0.082280 -0.017664
		CHANNELS 3 Zrotation Yrotation Xrotation
		JOINT lknee
		{
			OFFSET 0.043451 -0.386469 0.008037
			CHANNELS 3 Zrotation Yrotation Xrotation
			JOINT lankle
			{
				OFFSET -0.014790 -0.426874 -0.037428
				CHANNELS 3 Zrotation Yrotation Xrotation
				JOINT ltoe
				{
					OFFSET 0.041054 -0.060286 0.122042
					CHANNELS 3 Zrotation Yrotation Xrotation
					End Site
					{
						OFFSET 0.000000 0.000000 0.000000
					}
				}
			}
		}
	}
	JOINT rhip
	{
		OFFSET -0.060310 -0.090513 -0.013543
		CHANNELS 3 Zrotation Yrotation Xrotation
		JOINT rknee
		{
			OFFSET -0.043257 -0.383688 -0.004843
			CHANNELS 3 Zrotation Yrotation Xrotation
			JOINT rankle
			{
				OFFSET 0.019056 -0.420046 -0.034562
				CHANNELS 3 Zrotation Yrotation Xrotation
				JOINT rtoe
				{
					OFFSET -0.034840 -0.062106 0.130323
					CHANNELS 3 Zrotation Yrotation Xrotation
					End Site
					{
						OFFSET 0.000000 0.000000 0.000000
					}
				}
			}
		}
	}
	JOINT lowerback
	{
		OFFSET 0.004439 0.124404 -0.038385
		CHANNELS 3 Zrotation Yrotation Xrotation
		JOINT upperback
		{
			OFFSET 0.004488 0.137956 0.026820
			CHANNELS 3 Zrotation Yrotation Xrotation
			JOINT chest
			{
				OFFSET -0.002265 0.056032 0.002855
				CHANNELS 3 Zrotation Yrotation Xrotation
				JOINT lowerneck
				{
					OFFSET -0.013390 0.211636 -0.033468
					CHANNELS 3 Zrotation Yrotation Xrotation
					JOINT upperneck
					{
						OFFSET 0.010113 0.088937 0.050410
						CHANNELS 3 Zrotation Yrotation Xrotation
						End Site
						{
							OFFSET 0.000000 0.000000 0.000000
						}
					}
				}
				JOINT lclavicle
				{
					OFFSET 0.071702 0.114000 -0.018898
					CHANNELS 3 Zrotation Yrotation Xrotation
					JOINT lshoulder
					{
						OFFSET 0.122921 0.045205 -0.019046
						CHANNELS 3 Zrotation Yrotation Xrotation
						JOINT lelbow
						{
							OFFSET 0.255332 -0.015649 -0.022946
							CHANNELS 3 Zrotation Yrotation Xrotation
							JOINT lwrist
							{
								OFFSET 0.265709 0.012698 -0.007375
								CHANNELS 3 Zrotation Yrotation Xrotation
								End Site
								{
									OFFSET 0.000000 0.000000 0.000000
								}
							}
						}
					}
				}
				JOINT rclavicle
				{
					OFFSET -0.082954 0.112472 -0.023707
					CHANNELS 3 Zrotation Yrotation Xrotation
					JOINT rshoulder
					{
						OFFSET -0.113228 0.046853 -0.008472
						CHANNELS 3 Zrotation Yrotation Xrotation
						JOINT relbow
						{
							OFFSET -0.260127 -0.014369 -0.031269
							CHANNELS 3 Zrotation Yrotation Xrotation
							JOINT rwrist
							{
								OFFSET -0.269108 0.006794 -0.006027
								CHANNELS 3 Zrotation Yrotation Xrotation
								End Site
								{
									OFFSET 0.000000 0.000000 0.000000
								}
							}
						}
					}
				}
			}
		}
	}
}
MOTION
Frames: 7
Frame Time: 0.033333
0.019896 1.010087 0.906162 -68.873577 -7.355200 85.407984 10.361654 9.689061 -20.965546 2.159222 19.853909 82.318876 0.794601 12.912245 -10.837094 0.000000 -0.000000 0.000000 4.376289 -5.995108 -21.411849 1.044301 -16.915598 48.966350 -5.642823 -15.056262 -28.444604 0.000000 -0.000000 0.000000 -10.024753 4.100394 23.582062 -6.098511 -2.863628 -14.316897 -5.771558 2.762143 -4.313155 1.155083 9.296804 -7.342919 10.940910 -0.735270 4.761197 -1.712213 -6.799835 -6.355404 -16.866840 -1.199936 8.679094 -107.024877 -82.301015 137.472188 44.945924 -22.212549 -5.506482 2.383127 9.939710 -10.015424 40.515363 16.678863 -2.923624 -125.644083 41.722611 -118.397359 -9.272831 3.795330 -66.954953 
0.013137 1.023809 0.912401 -68.397828 -7.030276 85.896549 6.634901 9.892287 -19.718774 -2.004977 20.356933 82.565695 -2.881611 6.202113 -7.162719 0.000000 -0.000000 0.000000 5.952737 -5.866237 -20.628219 1.020630 -17.275129 46.200352 -5.895316 -14.504784 -25.912593 0.000000 -0.000000 0.000000 -9.348301 3.711868 23.066819 -6.061416 -3.218353 -13.963188 -5.923470 2.442864 -4.426354 1.216160 8.703294 -5.988733 10.694261 0.323636 3.432823 -2.116989 -6.913302 -6.667743 -17.408279 -0.995093 10.331388 -116.689084 -81.962588 146.444473 44.878401 -22.407392 -5.812631 1.421550 9.687135 -10.858423 38.392551 16.874655 -4.116678 -122.820276 40.362685 -117.385962 -10.288754 1.823224 -65.411897 
0.006530 1.038827 0.920619 -68.050245 -6.560173 86.479510 2.847843 10.766997 -17.798570 -8.730076 19.390377 76.435757 -6.243429 -1.042298 -5.458634 0.000000 -0.000000 0.000000 7.597276 -5.925568 -19.884888 1.363286 -17.335080 43.304738 -5.307309 -13.043829 -22.514879 0.000000 -0.000000 0.000000 -8.897461 3.254979 22.629174 -5.827089 -3.590722 -13.979172 -5.826070 2.223901 -4.448200 1.630523 8.592145 -4.565962 10.104392 1.237018 2.459585 -2.240317 -6.778142 -7.216973 -18.132285 -0.834541 12.334522 -120.663237 -81.457704 149.915698 45.238300 -23.504767 -6.869794 0.247545 9.050025 -11.851363 36.404044 17.179263 -5.149518 -119.357577 39.763879 -115.549685 -11.622494 0.015112 -63.165669 
0.000715 1.055759 0.929814 -67.880692 -6.036811 87.551342 -0.237441 11.285836 -16.030476 -13.962202 16.854668 65.332225 -7.302609 -4.456396 -5.240966 0.000000 -0.000000 0.000000 8.883352 -6.056772 -20.244786 2.212988 -17.459786 41.449619 -3.989379 -11.017429 -17.947754 0.000000 -0.000000 0.000000 -8.872357 2.816046 21.939961 -5.538785 -3.835845 -14.399586 -5.401729 1.971341 -4.384493 2.240877 8.476412 -3.017291 9.614709 2.163484 1.743120 -2.307606 -6.577636 -7.580160 -18.642435 -0.979687 14.187817 -123.292500 -80.467765 152.629357 45.200371 -24.289369 -6.385538 -0.926524 8.191280 -12.490844 34.380865 17.471377 -6.214199 -115.462146 39.454014 -113.376184 -13.121707 -1.808922 -60.954532 
-0.003284 1.074601 0.938590 -67.504566 -5.336739 89.034738 -2.460949 9.921703 -14.167654 -15.233720 14.567744 53.004072 -2.866288 3.595659 -5.151950 0.000000 -0.000000 0.000000 9.267074 -6.272472 -22.316331 4.193288 -18.673143 41.735801 -2.032279 -9.644164 -11.617042 0.000000 -0.000000 0.000000 -8.923950 2.104468 20.666741 -5.233483 -3.837178 -14.969919 -4.904256 1.607902 -3.391914 2.876322 8.124364 -2.936546 9.142370 3.094318 2.101205 -2.246871 -6.261147 -7.657108 -18.963168 -1.825450 15.424391 -123.948894 -79.822677 153.681220 47.414565 -23.519926 -7.777940 -2.090075 7.068240 -12.969106 32.204220 18.013351 -6.997161 -111.001217 39.005685 -109.930339 -14.875083 -3.901981 -59.003133 
-0.007822 1.093876 0.945703 -67.116424 -4.543426 89.138620 -3.280179 9.602585 -11.423716 -12.293654 12.678639 49.422569 0.769765 4.870792 -10.526418 0.000000 -0.000000 0.000000 8.386850 -7.769885 -24.678909 5.645120 -20.642184 45.641132 2.472298 -6.835290 -2.406674 0.000000 -0.000000 0.000000 -8.658884 1.222640 20.977009 -5.115379 -3.732562 -14.741683 -4.372378 1.152552 -3.174422 3.255607 7.463168 -1.852930 8.238285 4.718388 0.632981 -1.873445 -6.141736 -6.946717 -19.649320 -2.398623 15.570605 -126.975373 -79.041365 156.401846 47.740027 -23.247846 -8.078057 -3.507567 6.534869 -13.146970 29.425695 18.489762 -8.727701 -105.920860 38.942571 -107.541910 -16.277958 -5.185366 -56.484281 
-0.011871 1.112714 0.949385 -66.634528 -3.256422 88.410575 -2.547703 9.789984 -9.049698 -12.658550 8.520809 45.936736 4.135838 8.950928 -14.501385 0.000000 -0.000000 0.000000 6.480510 -9.554016 -27.518644 6.706468 -22.005760 51.342398 6.871988 -2.913288 7.259112 0.000000 -0.000000 0.000000 -7.209521 -0.085416 22.820981 -5.305280 -3.679233 -15.297719 -3.976274 0.853850 -2.777535 2.840245 6.531517 -1.322791 7.572654 6.689128 -0.456643 -1.667947 -6.505738 -6.988519 -19.678344 -2.123904 15.791420 -129.439493 -77.543162 158.592376 48.708579 -21.867908 -8.875504 -5.372181 6.531689 -13.713988 26.029568 18.395851 -11.312692 -99.899789 39.752830 -104.438023 -18.658143 -6.935768 -52.996076 
